<?xml version="1.0" ?><!DOCTYPE svg  PUBLIC '-//W3C//DTD SVG 1.1//EN'  'http://www.w3.org/Graphics/SVG/1.1/DTD/svg11.dtd'><!-- Creator: CorelDRAW --><svg height="28.9815cm" style="shape-rendering:geometricPrecision; text-rendering:geometricPrecision; image-rendering:optimizeQuality; fill-rule:evenodd; clip-rule:evenodd" viewBox="0 0 20.492 28.9815" width="20.492cm" xml:space="preserve" xmlns="http://www.w3.org/2000/svg" xmlns:xlink="http://www.w3.org/1999/xlink">
 <defs>
  <style type="text/css">
   <![CDATA[
    .str1 {stroke:#0093DD;stroke-width:0.0195162}
    .str0 {stroke:#DD137B;stroke-width:0.0195162}
    .fil0 {fill:#1F1A17}
   ]]>
  </style>
 </defs>
 <g id="图层_x0020_1">
  <metadata id="CorelCorpID_0Corel-Layer"/>
  
  
  
  
  
  
 <path class="fil0 str0" d="M1.79164 6.32386c0.131471,0.569746 0.637047,1.82485 0.769065,3.27117 0.225939,2.47537 0.226183,5.75429 -0.0761912,7.52446 -0.572722,3.35282 -0.794231,7.39419 -3.24446,10.2416 -0.953883,1.10849 -2.20586,2.1332 -2.14688,2.15086 1.36336,0.408484 3.72232,-1.11944 4.63538,-2.23339 1.61275,-1.96759 1.85204,-5.8189 2.24142,-8.18301 0.550835,-3.34434 1.12691,-6.75983 0.935196,-10.1478 -0.0725319,-1.28176 0.0676724,-2.83792 -0.804174,-3.50045 -0.700221,-0.532119 -2.02632,-2.63242 -2.40571,-3.72135 -0.081968,0.141004 -0.163351,0.476907 -0.306999,0.813649 -0.711072,1.66693 0.0496004,2.2512 0.403351,3.78433z"/></g>
</svg>