<?xml version="1.0" ?><!DOCTYPE svg  PUBLIC '-//W3C//DTD SVG 1.1//EN'  'http://www.w3.org/Graphics/SVG/1.1/DTD/svg11.dtd'><!-- Creator: CorelDRAW --><svg height="28.9815cm" style="shape-rendering:geometricPrecision; text-rendering:geometricPrecision; image-rendering:optimizeQuality; fill-rule:evenodd; clip-rule:evenodd" viewBox="0 0 20.492 28.9815" width="20.492cm" xml:space="preserve" xmlns="http://www.w3.org/2000/svg" xmlns:xlink="http://www.w3.org/1999/xlink">
 <defs>
  <style type="text/css">
   <![CDATA[
    .str1 {stroke:#0093DD;stroke-width:0.0195162}
    .str0 {stroke:#DD137B;stroke-width:0.0195162}
    .fil0 {fill:#1F1A17}
   ]]>
  </style>
 </defs>
 <g id="图层_x0020_1">
  <metadata id="CorelCorpID_0Corel-Layer"/>
  
  
  
  
  
  
 <path class="fil0 str1" d="M9.71422 7.47271c0.0145298,0.023234 0.47719,-0.571971 1.16377,-0.313323 1.87842,0.707638 2.73409,2.04147 2.4444,2.4277 -0.552416,0.736502 -1.93731,2.67046 -2.34859,3.93718 -0.206472,0.635955 -0.522897,1.14053 0.0637204,1.80749 0.811103,0.922208 1.71202,1.52434 1.9212,2.04806 0.312825,0.783194 -0.523746,1.35957 -2.06522,2.71383 -1.17006,1.02797 -3.09719,2.60302 -4.01973,2.93914 -0.356492,0.12989 1.38993,-1.89649 1.94208,-2.71745 0.0519033,-0.0771865 0.0850028,-0.149016 0.121322,-0.196801 1.23727,-1.6281 1.69175,-2.06521 1.09132,-2.94188 -0.151963,-0.22187 -0.527581,-0.511041 -0.733897,-0.833927 -0.332244,-0.51996 -0.607149,-1.08326 -0.475297,-1.64632 0.318777,-1.36122 2.27449,-6.77661 1.34253,-6.80593 -0.931957,-0.0293231 -0.820666,-0.134847 -0.820666,-0.134847l0.373062 -0.282916z"/></g>
</svg>