<?xml version="1.0" ?><!DOCTYPE svg  PUBLIC '-//W3C//DTD SVG 1.1//EN'  'http://www.w3.org/Graphics/SVG/1.1/DTD/svg11.dtd'><!-- Creator: CorelDRAW --><svg height="28.9815cm" style="shape-rendering:geometricPrecision; text-rendering:geometricPrecision; image-rendering:optimizeQuality; fill-rule:evenodd; clip-rule:evenodd" viewBox="0 0 20.492 28.9815" width="20.492cm" xml:space="preserve" xmlns="http://www.w3.org/2000/svg" xmlns:xlink="http://www.w3.org/1999/xlink">
 <defs>
  <style type="text/css">
   <![CDATA[
    .str1 {stroke:#0093DD;stroke-width:0.0195162}
    .str0 {stroke:#DD137B;stroke-width:0.0195162}
    .fil0 {fill:#1F1A17}
   ]]>
  </style>
 </defs>
 <g id="图层_x0020_1">
  <metadata id="CorelCorpID_0Corel-Layer"/>
  
  
  
  
  
  
 <path class="fil0 str1" d="M13.7433 -0.646806c0.387074,-0.123059 1.40106,0.950702 1.61417,1.17836 0.984075,1.05116 1.14064,1.1481 0.745518,1.93835 -0.395125,0.79025 -1.03247,4.00316 -1.06231,5.21169 -0.0298403,1.20853 -0.387923,6.78866 -0.328243,7.89275 0.0596805,1.10409 0.328243,8.77304 1.43233,10.6231 1.10409,1.8501 -1.87994,4.5954 -1.83518,4.78936 0.0447604,0.193962 -0.731086,-0.0596805 -2.35738,-2.35738 -1.62629,-2.2977 -4.12563,-6.32659 -4.36433,-8.68396 -0.0391592,-0.386743 1.38462,2.27061 2.32027,3.2978 1.00803,1.10664 2.6507,2.53596 3.16502,2.63708 0.214824,-0.0892768 0.302862,-0.443398 0.19201,-1.18982 -0.417354,-2.8101 -0.200656,-4.93912 -0.111935,-11.7421 0.0649011,-4.97729 1.05828,-10.3329 0.387631,-11.4869 -0.133862,-0.230359 -0.913494,-0.131178 -1.30518,-0.0165205 -1.86221,0.545156 -3.57414,1.1711 -5.53344,1.9631 -0.82938,0.335259 -1.92255,0.998029 -2.7849,1.3816 -0.483748,0.215176 -0.978678,0.424584 -1.10302,0.336176 -0.28318,-0.201358 1.107,-1.18896 2.56075,-2.10709 1.33252,-0.841577 5.57941,-2.7789 8.3682,-3.66557z"/></g>
</svg>