<?xml version="1.0" encoding="UTF-8"?>
<!DOCTYPE svg PUBLIC "-//W3C//DTD SVG 1.1//EN" "http://www.w3.org/Graphics/SVG/1.1/DTD/svg11.dtd">
<!-- Creator: CorelDRAW -->
<svg xmlns="http://www.w3.org/2000/svg" xml:space="preserve" width="20.492cm" height="28.9815cm" style="shape-rendering:geometricPrecision; text-rendering:geometricPrecision; image-rendering:optimizeQuality; fill-rule:evenodd; clip-rule:evenodd"
viewBox="0 0 20.492 28.9815"
 xmlns:xlink="http://www.w3.org/1999/xlink">
 <defs>
  <style type="text/css">
   <![CDATA[
    .str1 {stroke:#0093DD;stroke-width:0.0195162}
    .str0 {stroke:#DD137B;stroke-width:0.0195162}
    .fil0 {fill:#1F1A17}
   ]]>
  </style>
 </defs>
 <g id="图层_x0020_1">
  <metadata id="CorelCorpID_0Corel-Layer"/>
  <path class="fil0 str0" d="M1.79164 6.32386c0.131471,0.569746 0.637047,1.82485 0.769065,3.27117 0.225939,2.47537 0.226183,5.75429 -0.0761912,7.52446 -0.572722,3.35282 -0.794231,7.39419 -3.24446,10.2416 -0.953883,1.10849 -2.20586,2.1332 -2.14688,2.15086 1.36336,0.408484 3.72232,-1.11944 4.63538,-2.23339 1.61275,-1.96759 1.85204,-5.8189 2.24142,-8.18301 0.550835,-3.34434 1.12691,-6.75983 0.935196,-10.1478 -0.0725319,-1.28176 0.0676724,-2.83792 -0.804174,-3.50045 -0.700221,-0.532119 -2.02632,-2.63242 -2.40571,-3.72135 -0.081968,0.141004 -0.163351,0.476907 -0.306999,0.813649 -0.711072,1.66693 0.0496004,2.2512 0.403351,3.78433z"/>
  <path class="fil0 str1" d="M13.7433 -0.646806c0.387074,-0.123059 1.40106,0.950702 1.61417,1.17836 0.984075,1.05116 1.14064,1.1481 0.745518,1.93835 -0.395125,0.79025 -1.03247,4.00316 -1.06231,5.21169 -0.0298403,1.20853 -0.387923,6.78866 -0.328243,7.89275 0.0596805,1.10409 0.328243,8.77304 1.43233,10.6231 1.10409,1.8501 -1.87994,4.5954 -1.83518,4.78936 0.0447604,0.193962 -0.731086,-0.0596805 -2.35738,-2.35738 -1.62629,-2.2977 -4.12563,-6.32659 -4.36433,-8.68396 -0.0391592,-0.386743 1.38462,2.27061 2.32027,3.2978 1.00803,1.10664 2.6507,2.53596 3.16502,2.63708 0.214824,-0.0892768 0.302862,-0.443398 0.19201,-1.18982 -0.417354,-2.8101 -0.200656,-4.93912 -0.111935,-11.7421 0.0649011,-4.97729 1.05828,-10.3329 0.387631,-11.4869 -0.133862,-0.230359 -0.913494,-0.131178 -1.30518,-0.0165205 -1.86221,0.545156 -3.57414,1.1711 -5.53344,1.9631 -0.82938,0.335259 -1.92255,0.998029 -2.7849,1.3816 -0.483748,0.215176 -0.978678,0.424584 -1.10302,0.336176 -0.28318,-0.201358 1.107,-1.18896 2.56075,-2.10709 1.33252,-0.841577 5.57941,-2.7789 8.3682,-3.66557z"/>
  <path class="fil0 str1" d="M9.71422 7.47271c0.0145298,0.023234 0.47719,-0.571971 1.16377,-0.313323 1.87842,0.707638 2.73409,2.04147 2.4444,2.4277 -0.552416,0.736502 -1.93731,2.67046 -2.34859,3.93718 -0.206472,0.635955 -0.522897,1.14053 0.0637204,1.80749 0.811103,0.922208 1.71202,1.52434 1.9212,2.04806 0.312825,0.783194 -0.523746,1.35957 -2.06522,2.71383 -1.17006,1.02797 -3.09719,2.60302 -4.01973,2.93914 -0.356492,0.12989 1.38993,-1.89649 1.94208,-2.71745 0.0519033,-0.0771865 0.0850028,-0.149016 0.121322,-0.196801 1.23727,-1.6281 1.69175,-2.06521 1.09132,-2.94188 -0.151963,-0.22187 -0.527581,-0.511041 -0.733897,-0.833927 -0.332244,-0.51996 -0.607149,-1.08326 -0.475297,-1.64632 0.318777,-1.36122 2.27449,-6.77661 1.34253,-6.80593 -0.931957,-0.0293231 -0.820666,-0.134847 -0.820666,-0.134847l0.373062 -0.282916z"/>
  <path class="fil0 str0" d="M1.79164 6.32386c0.131471,0.569746 0.637047,1.82485 0.769065,3.27117 0.225939,2.47537 0.226183,5.75429 -0.0761912,7.52446 -0.572722,3.35282 -0.794231,7.39419 -3.24446,10.2416 -0.953883,1.10849 -2.20586,2.1332 -2.14688,2.15086 1.36336,0.408484 3.72232,-1.11944 4.63538,-2.23339 1.61275,-1.96759 1.85204,-5.8189 2.24142,-8.18301 0.550835,-3.34434 1.12691,-6.75983 0.935196,-10.1478 -0.0725319,-1.28176 0.0676724,-2.83792 -0.804174,-3.50045 -0.700221,-0.532119 -2.02632,-2.63242 -2.40571,-3.72135 -0.081968,0.141004 -0.163351,0.476907 -0.306999,0.813649 -0.711072,1.66693 0.0496004,2.2512 0.403351,3.78433z"/>
  <path class="fil0 str1" d="M13.7433 -0.646806c0.387074,-0.123059 1.40106,0.950702 1.61417,1.17836 0.984075,1.05116 1.14064,1.1481 0.745518,1.93835 -0.395125,0.79025 -1.03247,4.00316 -1.06231,5.21169 -0.0298403,1.20853 -0.387923,6.78866 -0.328243,7.89275 0.0596805,1.10409 0.328243,8.77304 1.43233,10.6231 1.10409,1.8501 -1.87994,4.5954 -1.83518,4.78936 0.0447604,0.193962 -0.731086,-0.0596805 -2.35738,-2.35738 -1.62629,-2.2977 -4.12563,-6.32659 -4.36433,-8.68396 -0.0391592,-0.386743 1.38462,2.27061 2.32027,3.2978 1.00803,1.10664 2.6507,2.53596 3.16502,2.63708 0.214824,-0.0892768 0.302862,-0.443398 0.19201,-1.18982 -0.417354,-2.8101 -0.200656,-4.93912 -0.111935,-11.7421 0.0649011,-4.97729 1.05828,-10.3329 0.387631,-11.4869 -0.133862,-0.230359 -0.913494,-0.131178 -1.30518,-0.0165205 -1.86221,0.545156 -3.57414,1.1711 -5.53344,1.9631 -0.82938,0.335259 -1.92255,0.998029 -2.7849,1.3816 -0.483748,0.215176 -0.978678,0.424584 -1.10302,0.336176 -0.28318,-0.201358 1.107,-1.18896 2.56075,-2.10709 1.33252,-0.841577 5.57941,-2.7789 8.3682,-3.66557z"/>
  <path class="fil0 str1" d="M9.71422 7.47271c0.0145298,0.023234 0.47719,-0.571971 1.16377,-0.313323 1.87842,0.707638 2.73409,2.04147 2.4444,2.4277 -0.552416,0.736502 -1.93731,2.67046 -2.34859,3.93718 -0.206472,0.635955 -0.522897,1.14053 0.0637204,1.80749 0.811103,0.922208 1.71202,1.52434 1.9212,2.04806 0.312825,0.783194 -0.523746,1.35957 -2.06522,2.71383 -1.17006,1.02797 -3.09719,2.60302 -4.01973,2.93914 -0.356492,0.12989 1.38993,-1.89649 1.94208,-2.71745 0.0519033,-0.0771865 0.0850028,-0.149016 0.121322,-0.196801 1.23727,-1.6281 1.69175,-2.06521 1.09132,-2.94188 -0.151963,-0.22187 -0.527581,-0.511041 -0.733897,-0.833927 -0.332244,-0.51996 -0.607149,-1.08326 -0.475297,-1.64632 0.318777,-1.36122 2.27449,-6.77661 1.34253,-6.80593 -0.931957,-0.0293231 -0.820666,-0.134847 -0.820666,-0.134847l0.373062 -0.282916z"/>
 </g>
</svg>
